# xmcd
#
# Track frame offsets:
#	150
#	32766
#	53804
#	65582
#	96105
#	126426
#	148676
#	165317
#	185532
#	204570
#	228116
#	251873
#	274987
#
# Disc length: 4134 seconds
#
# Revision: 1
# Processed by: cddbd v1.4b41PL1 Copyright (c) Steve Scherf et al.
# Submitted via: audiograbber 1.80
#
DISCID=bf10240d
DTITLE=Mean Town Blues Band - 2nd Gig, 2001.04.28 Rendez Vous 2
DYEAR=1900
DGENRE=
TTITLE0=1-800-FOOL
TTITLE1=Ain't Superstitious
TTITLE2=Whammer Jammer
TTITLE3=Voodoo Chile (Slight Return)
TTITLE4=Leavin' Trunk
TTITLE5=Before You Accuse Me
TTITLE6=Sidetracked
TTITLE7=Wind Cries Mary
TTITLE8=Pawn Shop
TTITLE9=Midnight Blues
TTITLE10=Dock of the Bay
TTITLE11=Help Me
TTITLE12=Hoochie Koochie Man
EXTD=
EXTT0=
EXTT1=
EXTT2=
EXTT3=
EXTT4=
EXTT5=
EXTT6=
EXTT7=
EXTT8=
EXTT9=
EXTT10=
EXTT11=
EXTT12=
PLAYORDER=
